
<svg width="48" height="47" viewBox="0 0 48 47" fill="none" xmlns="http://www.w3.org/2000/svg">
<path d="M6.86646e-05 22.8107C0.237568 22.2482 0.237571 21.6357 0.362571 21.0483C0.875071 18.6358 2.03757 16.5358 3.48757 14.5608C3.80007 14.1233 4.36256 14.0358 4.77506 14.3233C5.20006 14.6233 5.31256 15.1608 5.00006 15.6483C4.37506 16.5983 3.70007 17.5233 3.21257 18.5483C-0.674929 26.6982 4.32507 36.1732 13.2376 37.5857C20.4 38.7232 27.275 33.7357 28.425 26.5857C28.9875 23.0857 28.3 19.8483 26.3375 16.8983C23.775 13.0733 21.1875 9.26076 18.6001 5.46077C16.9126 2.99827 13.6001 2.99827 11.9126 5.46077C11.2626 6.41077 10.6126 7.37327 9.97506 8.33576C9.88756 8.46076 9.80006 8.59826 9.70006 8.71076C9.36256 9.08576 8.87506 9.14826 8.47506 8.88576C8.07507 8.61076 7.91256 8.07326 8.20006 7.64827C9.06256 6.34827 9.85006 4.98577 10.8626 3.79827C13.3376 0.910775 17.8125 1.13578 20.025 4.23577C20.6125 5.04827 21.1625 5.87327 21.7 6.71077C21.9 7.01077 22.0125 7.07327 22.3 6.78577C24.0625 5.06077 25.85 3.36077 27.6375 1.64827C28.825 0.510774 30.2375 -0.0892256 31.875 0.0107742C34.325 0.160774 36.0125 1.43577 36.9375 3.69827C38.2375 6.88577 39.525 10.0858 40.8 13.2858C41.4125 14.8358 42.1375 16.3483 42.525 17.9733C43.3375 21.4482 42.95 24.7857 41.375 27.9982C41.325 28.1107 41.2625 28.2232 41.2 28.3357C41.0125 28.7482 41.15 29.0107 41.575 29.1232C43.9375 29.7482 45.45 31.2357 46.05 33.6232C46.125 33.9357 46.2625 34.0357 46.5625 33.9982C47.1625 33.9232 47.675 34.0607 48 34.6232C48 35.1482 48 35.6857 48 36.2107C47.9125 36.4982 47.9125 36.7857 47.8875 37.0857C47.7625 38.6357 47.0125 39.9107 46.0875 41.0857C44.45 43.1857 42.275 44.4107 39.65 44.8232C39.3875 44.8607 39.125 44.8732 38.8625 44.8732C37.0625 44.8732 35.275 44.8982 33.475 44.8732C31.05 44.8357 28.9625 43.9232 27.175 42.2857C25.775 41.0107 24.8125 39.4732 24.2875 37.6607C24.15 37.1982 24.025 37.1607 23.6125 37.4232C21.4875 38.7732 19.175 39.5857 16.6751 39.7982C14.0501 40.0107 11.5126 39.6482 9.07506 38.5857C7.38756 37.8482 5.88757 36.8607 4.57507 35.5982C2.45007 33.5607 1.00007 31.1232 0.27507 28.2607C0.0750701 27.4982 0.137573 26.6857 0.0125732 25.9107C7.3242e-05 24.8607 6.86646e-05 23.8357 6.86646e-05 22.8107Z" fill="currentColor"/>
<path d="M5.5536e-05 25.8982C0.250055 26.5857 0.262555 27.3232 0.437555 28.0232C1.97505 34.2232 7.13755 38.7857 13.475 39.4982C17.275 39.9232 20.75 39.0607 23.9125 36.9107C24.0125 36.8357 24.125 36.7732 24.25 36.6982C24.2875 36.7982 24.325 36.8857 24.35 36.9732C25.45 41.5857 29.0875 44.5607 33.825 44.6732C35.5125 44.7107 37.2 44.7232 38.8875 44.6482C43.2 44.4607 47.0375 41.0607 47.8125 36.8107C47.85 36.6107 47.8125 36.3732 47.9875 36.2107C47.9875 39.4732 47.9875 42.7357 48 45.9982C48 46.2732 47.9375 46.3357 47.6625 46.3357C31.8875 46.3232 16.1125 46.3232 0.337557 46.3357C-0.0124429 46.3357 5.5536e-05 46.1982 5.5536e-05 45.9482C5.5536e-05 39.2607 5.5536e-05 32.5857 5.5536e-05 25.8982Z" fill="#FEFEFE"/>
<path d="M15.275 35.1109C9.0125 35.1109 4.08751 29.8609 4.51251 23.6609C4.63751 21.8359 5.1625 20.1359 6.1875 18.6109C8.8 14.7109 11.4375 10.8234 14.075 6.93594C14.7 6.01094 15.775 6.01094 16.4 6.93594C19.05 10.8359 21.75 14.6984 24.3 18.6609C28.525 25.1984 24.425 33.9734 16.725 35.0234C16.2375 35.0734 15.7375 35.0859 15.275 35.1109Z" fill="currentColor"/>
<path d="M6.60004 12.5231C6.08754 12.5231 5.68754 12.1231 5.67504 11.6106C5.67504 11.0731 6.10004 10.6606 6.62504 10.6731C7.13754 10.6856 7.53754 11.1106 7.52504 11.6231C7.52504 12.1231 7.11254 12.5231 6.60004 12.5231Z" fill="currentColor"/>
<path d="M39.95 26.3856C39.125 25.3981 38.1125 24.6606 36.875 24.2606C36.55 24.1606 36.225 24.0356 35.875 24.0356C34.95 24.0231 34.2375 24.7481 34.2125 25.7606C34.2 26.5106 34.0375 27.2106 33.725 27.8856C33.4 28.5731 32.85 28.9481 32.1 28.9606C31.2875 28.9731 30.4875 29.0731 29.65 29.3856C29.8125 28.6231 30.05 27.9356 30.1875 27.2231C30.9125 23.1856 30.1875 19.4232 27.95 15.9857C26.425 13.6482 24.8375 11.3482 23.2625 9.04816C23.05 8.74816 23.0625 8.58566 23.3375 8.32316C25.1875 6.57317 27.0125 4.79817 28.8625 3.04817C31.0125 1.01067 34.0875 1.66067 35.2 4.41067C36.8875 8.59816 38.6125 12.7857 40.25 16.9982C41.4 19.9731 41.325 22.9856 40.2125 25.9731C40.15 26.1106 40.125 26.2731 39.95 26.3856Z" fill="#FEFEFE"/>
<path d="M36.0375 35.8609C39.2 35.8609 42.375 35.8734 45.5375 35.8484C45.9875 35.8484 46.05 35.9859 45.9625 36.3859C45.2125 40.0609 42.2 42.6609 38.45 42.7859C36.725 42.8359 34.9875 42.8484 33.25 42.7609C29.725 42.5984 26.6 39.6984 26.075 36.2109C26.0125 35.7984 26.2375 35.8609 26.4625 35.8609C29.675 35.8609 32.85 35.8609 36.0375 35.8609Z" fill="#FEFEFE"/>
<path d="M36.125 26.0232C37.8125 26.3982 39.175 27.9607 39.4375 29.7857C39.5625 30.5982 39.7875 30.7732 40.625 30.8732C42.3125 31.0732 43.4625 31.9857 44.0875 33.5607C44.2125 33.8857 44.1625 33.9857 43.7875 33.9857C38.6375 33.9732 33.475 33.9732 28.325 33.9857C27.9 33.9857 27.9125 33.8482 28.025 33.5232C28.6125 31.9107 30.1 30.8607 31.925 30.8357C33.3 30.8107 34.425 30.3107 35.175 29.1357C35.575 28.4982 35.8375 27.7982 35.975 27.0482C36.0375 26.7232 36.075 26.3857 36.125 26.0232Z" fill="#FEFEFE"/>
<path d="M15.25 8.56055C16.375 10.223 17.475 11.848 18.575 13.473C19.9 15.423 21.225 17.373 22.5375 19.3355C25.775 24.198 23.7625 30.623 18.35 32.673C13 34.698 7.15004 31.1605 6.43754 25.473C6.17504 23.348 6.58755 21.3605 7.77504 19.573C10.2 15.9355 12.6625 12.323 15.1125 8.71055C15.1375 8.67305 15.175 8.64805 15.25 8.56055Z" fill="#FEFEFE"/>
<path d="M37.75 19.8108C38.275 19.7983 38.7 20.2108 38.7 20.7358C38.7 21.2358 38.3 21.6608 37.7875 21.6733C37.275 21.6858 36.825 21.2483 36.825 20.7358C36.8375 20.2358 37.25 19.8108 37.75 19.8108Z" fill="currentColor"/>
<path d="M37.225 16.4734C37.225 16.9984 36.8375 17.3984 36.3125 17.3984C35.775 17.4109 35.35 16.9734 35.3625 16.4484C35.375 15.9359 35.8 15.5359 36.3 15.5359C36.825 15.5484 37.225 15.9484 37.225 16.4734Z" fill="currentColor"/>
<path d="M15.4125 16.248C15.8125 16.2605 16.1 16.423 16.275 16.748C16.45 17.0855 16.45 17.423 16.2 17.7105C15.9125 18.048 15.5875 18.3855 15.2375 18.6605C14.9 18.9355 14.5001 18.923 14.1626 18.648C13.8251 18.3855 13.65 18.023 13.8375 17.623C14.125 17.0355 14.6001 16.6105 15.1626 16.2855C15.2376 16.248 15.35 16.2605 15.4125 16.248Z" fill="currentColor"/>
<path d="M15.2501 30.2109C15.0626 30.2109 14.8751 30.2234 14.6876 30.2109C14.1751 30.1859 13.8001 29.8109 13.7751 29.3234C13.7501 28.8484 14.1126 28.4109 14.6126 28.3609C15.0126 28.3234 15.4251 28.3234 15.8251 28.3609C16.3626 28.3984 16.7126 28.8359 16.6751 29.3484C16.6501 29.8484 16.2876 30.1984 15.7501 30.2234C15.5876 30.2234 15.4251 30.2109 15.2501 30.2109Z" fill="currentColor"/>
<path d="M11.0625 23.3107C11.0625 23.4357 11 23.6482 10.8375 23.8107C10.575 24.0982 10.3 24.3857 10.0125 24.6357C9.61253 24.9732 9.10003 24.9482 8.75003 24.6107C8.38753 24.2482 8.36253 23.7107 8.72503 23.3107C8.98753 23.0232 9.26253 22.7482 9.55003 22.4857C9.85003 22.2232 10.2 22.1982 10.55 22.3857C10.9 22.5357 11.0625 22.8232 11.0625 23.3107Z" fill="currentColor"/>
<path d="M13.9375 23.3232C13.9375 22.9107 14.1125 22.6357 14.45 22.4607C14.7875 22.2857 15.1375 22.3107 15.4125 22.5482C15.7375 22.8232 16.0625 23.1357 16.3375 23.4732C16.6375 23.8232 16.5875 24.3482 16.275 24.6732C15.9625 25.0107 15.45 25.0857 15.0875 24.7982C14.725 24.5107 14.4125 24.1607 14.0875 23.8107C13.975 23.6732 13.9375 23.4857 13.9375 23.3232Z" fill="currentColor"/>
<path d="M21.65 23.1857C21.6625 23.4357 21.5625 23.6482 21.4 23.8232C21.15 24.0982 20.8875 24.3732 20.6 24.6107C20.1875 24.9732 19.65 24.9357 19.3 24.5607C18.95 24.1982 18.9375 23.6982 19.3 23.2982C19.5625 23.0107 19.8375 22.7357 20.125 22.4732C20.425 22.2107 20.775 22.1732 21.125 22.3482C21.4625 22.5357 21.6375 22.8107 21.65 23.1857Z" fill="currentColor"/>
</svg>
