<svg width="236" height="212" viewBox="0 0 236 212" fill="none" xmlns="http://www.w3.org/2000/svg">
<circle r="21" transform="matrix(-1 0 0 1 152 27)" fill="#FF9877"/>
<circle r="6.5" transform="matrix(-1 0 0 1 72.5 36.5)" fill="#FF764A"/>
<circle r="6.5" transform="matrix(-1 0 0 1 33.5 123.5)" fill="#FF764A"/>
<circle r="13.5" transform="matrix(-1 0 0 1 222.5 121.5)" fill="#FF9877"/>
<circle r="14.5" transform="matrix(-1 0 0 1 66.5 197.5)" fill="#FF9877"/>
<circle cx="192" cy="114" r="3" fill="#FF764A"/>
<circle cx="185" cy="200" r="3" fill="#FF764A"/>
<circle cx="103" cy="197" r="3" fill="#FF764A"/>
<circle cx="3" cy="173" r="3" fill="#FF764A"/>
<path d="M222 74C222 76.2091 223.791 78 226 78C228.209 78 230 76.2091 230 74C230 71.7909 228.209 70 226 70C223.791 70 222 71.7909 222 74ZM227.8 74C227.8 74.9941 226.994 75.8 226 75.8C225.006 75.8 224.2 74.9941 224.2 74C224.2 73.0059 225.006 72.2 226 72.2C226.994 72.2 227.8 73.0059 227.8 74Z" fill="#FF764A"/>
<path d="M86 4C86 6.20914 87.7909 8 90 8C92.2091 8 94 6.20914 94 4C94 1.79086 92.2091 0 90 0C87.7909 0 86 1.79086 86 4ZM91.8 4C91.8 4.99411 90.9941 5.8 90 5.8C89.0059 5.8 88.2 4.99411 88.2 4C88.2 3.00589 89.0059 2.2 90 2.2C90.9941 2.2 91.8 3.00589 91.8 4Z" fill="#FF764A"/>
<path d="M2 96C2 98.2091 3.79086 100 6 100C8.20914 100 10 98.2091 10 96C10 93.7909 8.20914 92 6 92C3.79086 92 2 93.7909 2 96ZM7.8 96C7.8 96.9941 6.99411 97.8 6 97.8C5.00589 97.8 4.2 96.9941 4.2 96C4.2 95.0059 5.00589 94.2 6 94.2C6.99411 94.2 7.8 95.0059 7.8 96Z" fill="#FF764A"/>
<path d="M181 70C181 76.0751 185.925 81 192 81C198.075 81 203 76.0751 203 70C203 63.9249 198.075 59 192 59C185.925 59 181 63.9249 181 70ZM196.73 70C196.73 72.6123 194.612 74.73 192 74.73C189.388 74.73 187.27 72.6123 187.27 70C187.27 67.3877 189.388 65.27 192 65.27C194.612 65.27 196.73 67.3877 196.73 70Z" fill="#806555"/>
<path d="M25 59.5C25 68.0604 31.9396 75 40.5 75C49.0604 75 56 68.0604 56 59.5C56 50.9396 49.0604 44 40.5 44C31.9396 44 25 50.9396 25 59.5ZM47.165 59.5C47.165 63.181 44.181 66.165 40.5 66.165C36.819 66.165 33.835 63.181 33.835 59.5C33.835 55.819 36.819 52.835 40.5 52.835C44.181 52.835 47.165 55.819 47.165 59.5Z" fill="#806555"/>
<path d="M21 165C21 171.075 25.9249 176 32 176C38.0751 176 43 171.075 43 165C43 158.925 38.0751 154 32 154C25.9249 154 21 158.925 21 165ZM36.73 165C36.73 167.612 34.6123 169.73 32 169.73C29.3877 169.73 27.27 167.612 27.27 165C27.27 162.388 29.3877 160.27 32 160.27C34.6123 160.27 36.73 162.388 36.73 165Z" fill="#806555"/>
<path d="M131 198C131 201.866 134.134 205 138 205C141.866 205 145 201.866 145 198C145 194.134 141.866 191 138 191C134.134 191 131 194.134 131 198ZM141.01 198C141.01 199.662 139.662 201.01 138 201.01C136.338 201.01 134.99 199.662 134.99 198C134.99 196.338 136.338 194.99 138 194.99C139.662 194.99 141.01 196.338 141.01 198Z" fill="#BB947E"/>
<path d="M102 37C102 41.4183 105.582 45 110 45C114.418 45 118 41.4183 118 37C118 32.5817 114.418 29 110 29C105.582 29 102 32.5817 102 37ZM113.44 37C113.44 38.8999 111.9 40.44 110 40.44C108.1 40.44 106.56 38.8999 106.56 37C106.56 35.1001 108.1 33.56 110 33.56C111.9 33.56 113.44 35.1001 113.44 37Z" fill="#BB947E"/>
<path d="M179 162C179 170.284 185.716 177 194 177C202.284 177 209 170.284 209 162C209 153.716 202.284 147 194 147C185.716 147 179 153.716 179 162ZM200.45 162C200.45 165.562 197.562 168.45 194 168.45C190.438 168.45 187.55 165.562 187.55 162C187.55 158.438 190.438 155.55 194 155.55C197.562 155.55 200.45 158.438 200.45 162Z" fill="#816555"/>
<path d="M56 121.5C56 156.018 83.9822 184 118.5 184C153.018 184 181 156.018 181 121.5C181 86.9822 153.018 59 118.5 59C83.9822 59 56 86.9822 56 121.5ZM168.5 121.5C168.5 149.114 146.114 171.5 118.5 171.5C90.8858 171.5 68.5 149.114 68.5 121.5C68.5 93.8858 90.8858 71.5 118.5 71.5C146.114 71.5 168.5 93.8858 168.5 121.5Z" fill="#FF764A"/>
<path d="M118.25 157.664C116.347 156.615 114.444 155.566 112.541 154.534C105.764 150.87 98.9868 147.206 92.21 143.524C91.872 143.346 91.5163 143.186 91.4273 142.759C91.285 142.545 91.3562 142.296 91.3562 142.065C91.3562 135.697 91.3562 129.347 91.3562 122.98C91.3562 122.055 91.4807 121.984 92.2633 122.393C97.9374 125.416 103.576 128.511 109.232 131.571C110.122 132.051 110.531 132.015 111.242 131.304C113.377 129.187 115.493 127.053 117.628 124.936C118.055 124.509 118.304 124.029 118.321 123.442C118.784 122.766 119.478 122.41 120.171 122.055C123.337 120.365 126.486 118.64 129.634 116.932C133.476 114.851 137.318 112.788 141.16 110.707C141.765 110.369 142.334 109.906 143.063 109.835C144.042 109.977 144.646 110.671 145.304 111.329C147.154 113.179 149.004 115.029 150.854 116.879C151.085 117.11 151.334 117.341 151.53 117.608C151.903 118.124 152.081 118.657 151.637 119.227C150.018 120.116 148.417 121.023 146.781 121.877C146.247 122.161 146.069 122.517 146.069 123.104C146.087 129.312 146.087 135.537 146.087 141.745C146.087 142.101 146.14 142.457 145.945 142.777C145.5 142.563 145.607 142.136 145.607 141.781C145.589 140.109 145.589 138.419 145.589 136.747C145.589 132.709 145.589 128.672 145.589 124.616C145.589 124.385 145.607 124.136 145.589 123.905C145.536 123.3 145.304 123.122 144.753 123.407C143.793 123.905 142.814 124.385 141.907 125.007C141.231 125.239 140.662 125.683 140.039 126.003C136.055 128.12 132.106 130.308 128.122 132.442C127.197 132.94 126.539 132.834 125.703 132.015C123.764 130.112 121.861 128.173 119.922 126.252C119.709 126.039 119.531 125.648 119.211 125.772C118.908 125.897 119.051 126.324 119.051 126.626C119.051 136.444 119.051 146.263 119.051 156.081C119.051 156.579 119.051 157.078 119.015 157.576C119.015 157.611 118.997 157.647 118.997 157.7C118.731 157.664 118.481 157.664 118.25 157.664Z" fill="#F2C397"/>
<path d="M118.98 157.558C118.677 157.397 118.677 157.113 118.677 156.828C118.677 146.209 118.677 135.608 118.677 124.989C118.677 124.9 118.695 124.811 118.731 124.669C119.086 124.758 119.193 125.078 119.407 125.274C121.559 127.408 123.693 129.543 125.828 131.695C126.717 132.584 127.091 132.62 128.193 132.015C132.693 129.596 137.176 127.177 141.676 124.758C141.996 124.9 141.996 125.203 142.014 125.487C142.049 126.057 142.032 126.626 142.032 127.177C142.032 132.727 142.032 138.259 142.032 143.808C142.032 144.342 142.067 144.893 141.712 145.373C137.692 147.561 133.654 149.749 129.634 151.919C126.326 153.716 123.017 155.494 119.727 157.273C119.478 157.38 119.229 157.451 118.98 157.558Z" fill="#E2AE83"/>
<path d="M118.535 123.442C118.837 123.958 118.677 124.367 118.286 124.758C115.884 127.141 113.501 129.525 111.118 131.926C110.548 132.495 109.979 132.389 109.374 132.051C107.542 131.072 105.71 130.076 103.878 129.08C101.352 127.711 98.8267 126.323 96.2831 124.936C94.8957 124.189 93.4905 123.442 92.1031 122.695C91.445 122.339 91.4094 122.339 91.4094 123.086C91.4094 126.181 91.4094 129.276 91.4094 132.371C91.4094 135.822 91.4094 139.272 91.4094 142.723C91.2138 142.403 91.2671 142.029 91.2671 141.691C91.2671 135.501 91.2493 129.311 91.2671 123.122C91.2671 122.517 91.1248 122.125 90.5379 121.823C88.3856 120.702 86.2512 119.511 84.1167 118.355C82.7649 117.625 82.6404 116.932 83.7432 115.829C86.0555 113.499 88.3856 111.186 90.7157 108.856C90.8047 108.767 90.8758 108.625 90.9648 108.518C91.2494 108.109 91.5695 108.305 91.9075 108.447C95.2692 110.066 98.4887 111.951 101.779 113.694C104.376 115.064 106.938 116.469 109.517 117.874C112.327 119.386 115.155 120.88 117.93 122.446C118.304 122.695 118.766 122.873 118.535 123.442Z" fill="#FFD2A6"/>
<path d="M118.802 93.0435C118.891 92.7234 119.14 92.5277 119.353 92.3143C121.577 90.0909 123.8 87.8675 126.023 85.6441C126.806 84.8792 127.073 84.8259 128.016 85.3239C136.5 89.913 144.967 94.5199 153.451 99.1089C154.483 99.6781 154.643 100.39 153.86 101.208C151.548 103.573 149.2 105.904 146.87 108.251C146.745 108.376 146.55 108.447 146.407 108.554C146.229 108.856 145.927 108.91 145.607 108.927C143.312 108.02 141.249 106.686 139.079 105.53C136.358 104.089 133.672 102.613 130.968 101.154C127.144 99.0733 123.302 97.0456 119.513 94.929C119.051 94.6799 118.659 94.3242 118.357 93.8973C118.161 93.4526 118.571 93.2925 118.802 93.0435Z" fill="#D39C72"/>
<path d="M118.801 93.0437C118.712 93.3461 118.623 93.6485 118.535 93.9331C118.766 94.4667 118.321 94.6446 118.001 94.858C117.112 95.4272 116.151 95.8897 115.208 96.3877C110.815 98.7534 106.439 101.137 102.046 103.503C98.9865 105.157 95.9271 106.793 92.8856 108.483C92.5476 108.679 92.1741 108.643 91.8539 108.821C91.5515 108.75 91.2669 108.661 90.9645 108.59C90.6622 108.483 90.4487 108.252 90.2353 108.038C88.083 105.868 85.9308 103.716 83.7786 101.546C83.6718 101.439 83.5829 101.35 83.4762 101.244C82.7469 100.408 82.8536 99.7139 83.8319 99.1625C85.4683 98.2554 87.1047 97.366 88.7589 96.4767C95.4825 92.8303 102.188 89.2017 108.912 85.5554C110.335 84.7727 110.441 84.7727 111.58 85.9289C113.874 88.2412 116.187 90.5535 118.481 92.8659C118.588 92.937 118.695 92.9726 118.801 93.0437Z" fill="#E2AE83"/>
<path d="M141.694 145.355C141.694 144.964 141.676 144.555 141.676 144.164C141.676 137.689 141.676 131.215 141.676 124.74C142.885 123.922 144.219 123.282 145.5 122.606C145.82 122.428 145.927 122.552 145.927 122.872C145.927 123.068 145.927 123.246 145.927 123.442C145.927 129.881 145.927 136.337 145.927 142.776C145.856 143.043 145.678 143.239 145.447 143.363C144.202 144.021 142.956 144.679 141.694 145.355Z" fill="#D39C72"/>
<path d="M145.5 108.696C145.784 108.572 146.069 108.554 146.371 108.572C146.514 108.91 146.834 109.088 147.083 109.337C149.271 111.542 151.476 113.748 153.664 115.971C154.66 116.967 154.536 117.679 153.308 118.355C152.739 118.657 152.188 118.942 151.619 119.244C151.69 118.248 151.067 117.608 150.427 116.967C148.524 115.082 146.62 113.179 144.735 111.275C144.255 110.777 143.757 110.333 143.081 110.119C142.992 109.941 143.027 109.781 143.17 109.675C143.899 109.212 144.557 108.607 145.5 108.696Z" fill="#E2AE83"/>
<path d="M145.5 108.696C144.699 109.177 143.899 109.639 143.081 110.119C140.751 111.365 138.403 112.592 136.091 113.855C132.266 115.918 128.46 117.999 124.636 120.062C122.928 120.987 121.238 121.912 119.531 122.819C119.175 123.015 118.962 123.389 118.535 123.478C118.179 122.855 117.503 122.659 116.934 122.357C110.815 118.995 104.679 115.705 98.5419 112.396C96.3186 111.204 94.0952 110.013 91.854 108.821C92.0852 108.341 92.5833 108.234 92.9746 108.021C96.6921 105.993 100.41 104.001 104.127 101.991C108.698 99.5183 113.27 97.0459 117.841 94.5735C118.126 94.4312 118.339 94.2178 118.517 93.9688C121.096 95.6052 123.835 96.9392 126.503 98.3977C129.225 99.8919 131.946 101.35 134.668 102.827C138.207 104.748 141.729 106.651 145.269 108.572C145.358 108.554 145.429 108.625 145.5 108.696Z" fill="#C48D69"/>
</svg>
