<svg width="241" height="221" viewBox="0 0 241 221" fill="none" xmlns="http://www.w3.org/2000/svg">
<circle r="3.06085" transform="matrix(-0.771625 0.636078 0.636078 0.771625 48.3087 115.31)" fill="#E83939"/>
<circle r="21" transform="matrix(-0.771625 0.636078 0.636078 0.771625 88.5608 29.5627)" fill="#FF7F56"/>
<circle r="12.7931" transform="matrix(-0.771625 0.636078 0.636078 0.771625 18.0091 123.01)" fill="#FF7F56"/>
<circle r="3.34339" transform="matrix(-0.771625 0.636078 0.636078 0.771625 54.7055 201.707)" fill="#E83939"/>
<circle r="3.51911" transform="matrix(-0.771625 0.636078 0.636078 0.771625 137.953 198.954)" fill="#E83939"/>
<circle cx="167.341" cy="38.8535" r="7.43851" transform="rotate(-39.5 167.341 38.8535)" fill="#E83939"/>
<circle cx="206.47" cy="126.472" r="7.43851" transform="rotate(-39.5 206.47 126.472)" fill="#E83939"/>
<circle cx="236.485" cy="174.487" r="3.18677" transform="rotate(-39.5 236.485 174.487)" fill="#E83939"/>
<circle cx="172.821" cy="199.823" r="14.7916" transform="rotate(-39.5 172.821 199.823)" fill="#FF7F56"/>
<path d="M11.3719 78.6226C12.6819 80.2119 15.0322 80.4382 16.6215 79.1281C18.2107 77.8181 18.437 75.4677 17.1269 73.8785C15.8169 72.2893 13.4666 72.063 11.8773 73.373C10.2881 74.6831 10.0618 77.0334 11.3719 78.6226ZM15.5443 75.1832C16.1338 75.8983 16.032 76.956 15.3168 77.5455C14.6017 78.135 13.544 78.0332 12.9545 77.318C12.365 76.6029 12.4668 75.5452 13.182 74.9557C13.8971 74.3662 14.9548 74.468 15.5443 75.1832Z" fill="#F5826E"/>
<path d="M123.909 43.7785C126.621 47.0685 131.487 47.5371 134.777 44.825C138.067 42.1129 138.535 37.2472 135.823 33.9571C133.111 30.6671 128.245 30.1986 124.955 32.9107C121.665 35.6228 121.197 40.4885 123.909 43.7785ZM132.428 36.7562C133.594 38.1709 133.392 40.2632 131.978 41.4294C130.563 42.5956 128.471 42.3941 127.305 40.9794C126.138 39.5647 126.34 37.4725 127.755 36.3063C129.169 35.1401 131.262 35.3415 132.428 36.7562Z" fill="#F2AAA0"/>
<path d="M147.489 8.0012C148.864 9.66956 151.331 9.90714 153 8.53185C154.668 7.15656 154.906 4.68919 153.53 3.02083C152.155 1.35247 149.688 1.11489 148.019 2.49018C146.351 3.86547 146.113 6.33284 147.489 8.0012ZM151.808 4.44024C152.4 5.15763 152.298 6.2186 151.58 6.80997C150.863 7.40135 149.802 7.29919 149.21 6.58179C148.619 5.8644 148.721 4.80343 149.439 4.21206C150.156 3.62068 151.217 3.72284 151.808 4.44024Z" fill="#F5826E"/>
<path d="M230.489 100.002C231.864 101.67 234.332 101.908 236 100.532C237.668 99.157 237.906 96.6897 236.531 95.0213C235.155 93.353 232.688 93.1154 231.02 94.4907C229.351 95.866 229.114 98.3333 230.489 100.002ZM234.809 96.4407C235.4 97.1581 235.298 98.2191 234.581 98.8105C233.863 99.4018 232.802 99.2997 232.211 98.5823C231.62 97.8649 231.722 96.8039 232.439 96.2125C233.156 95.6212 234.217 95.7233 234.809 96.4407Z" fill="#F5826E"/>
<path d="M95.8971 204.739C98.6023 208.02 103.456 208.488 106.737 205.782C110.019 203.077 110.486 198.224 107.781 194.942C105.076 191.661 100.223 191.193 96.9409 193.899C93.6593 196.604 93.192 201.457 95.8971 204.739ZM104.394 197.734C105.557 199.145 105.356 201.232 103.945 202.396C102.534 203.559 100.447 203.358 99.284 201.947C98.1208 200.536 98.3217 198.449 99.7328 197.286C101.144 196.122 103.231 196.323 104.394 197.734Z" fill="#F2AAA0"/>
<path d="M40.2841 79.406C44.3071 84.2863 51.5246 84.9813 56.4049 80.9583C61.2851 76.9353 61.9801 69.7178 57.9571 64.8375C53.9341 59.9572 46.7166 59.2623 41.8363 63.2852C36.956 67.3082 36.2611 74.5258 40.2841 79.406ZM52.9203 68.9895C54.6502 71.0881 54.3514 74.1916 52.2528 75.9215C50.1543 77.6514 47.0508 77.3525 45.3209 75.254C43.591 73.1555 43.8898 70.052 45.9884 68.3221C48.0869 66.5922 51.1904 66.891 52.9203 68.9895Z" fill="#9A4C71"/>
<path d="M188.503 70.5359C193.752 76.903 203.168 77.8098 209.536 72.5611C215.903 67.3124 216.809 57.8959 211.561 51.5288C206.312 45.1616 196.896 44.2549 190.528 49.5036C184.161 54.7522 183.255 64.1687 188.503 70.5359ZM204.989 56.9458C207.246 59.6837 206.856 63.7328 204.118 65.9897C201.381 68.2466 197.332 67.8567 195.075 65.1189C192.818 62.381 193.208 58.3319 195.945 56.075C198.683 53.818 202.732 54.2079 204.989 56.9458Z" fill="#9A4C71"/>
<path d="M199.457 174.963C203.575 179.959 210.965 180.671 215.961 176.552C220.958 172.433 221.669 165.044 217.55 160.047C213.432 155.051 206.042 154.339 201.046 158.458C196.049 162.577 195.338 169.966 199.457 174.963ZM212.122 164.522C213.77 166.521 213.485 169.476 211.487 171.124C209.488 172.771 206.532 172.487 204.885 170.488C203.237 168.49 203.522 165.534 205.52 163.886C207.519 162.239 210.475 162.523 212.122 164.522Z" fill="#9A4C71"/>
<path d="M33.9274 173.902C39.4108 180.554 49.2483 181.501 55.9002 176.017C62.552 170.534 63.4993 160.697 58.0159 154.045C52.5325 147.393 42.695 146.446 36.0432 151.929C29.3913 157.412 28.4441 167.25 33.9274 173.902ZM50.7894 160.002C52.9827 162.663 52.6038 166.598 49.9431 168.791C47.2823 170.984 43.3473 170.605 41.154 167.945C38.9606 165.284 39.3395 161.349 42.0003 159.156C44.661 156.962 48.596 157.341 50.7894 160.002Z" fill="#9A4C71"/>
<path d="M73.3018 163.736C95.2578 190.371 134.648 194.164 161.283 172.208C187.918 150.252 191.711 110.861 169.755 84.2265C147.799 57.5918 108.408 53.7989 81.7735 75.7549C55.1387 97.7109 51.3458 137.102 73.3018 163.736ZM160.11 92.1775C177.674 113.485 174.64 144.998 153.332 162.563C132.024 180.127 100.512 177.093 82.9471 155.785C65.3823 134.478 68.4166 102.965 89.7244 85.4002C111.032 67.8354 142.545 70.8697 160.11 92.1775Z" fill="#E83939"/>
<path fill-rule="evenodd" clip-rule="evenodd" d="M106.533 108.804C107.932 107.381 110.221 107.361 111.644 108.76L137.422 134.091C138.846 135.49 138.866 137.779 137.467 139.202C136.067 140.626 133.779 140.646 132.356 139.247L106.578 113.915C105.154 112.516 105.134 110.228 106.533 108.804Z" fill="#E83C3C"/>
<path fill-rule="evenodd" clip-rule="evenodd" d="M137.199 108.533C138.623 109.932 138.643 112.22 137.244 113.644L111.912 139.422C110.513 140.846 108.225 140.866 106.801 139.466C105.378 138.067 105.358 135.779 106.757 134.356L132.088 108.578C133.487 107.154 135.776 107.134 137.199 108.533Z" fill="#E83C3C"/>
</svg>
