<svg width="236" height="212" viewBox="0 0 236 212" fill="none" xmlns="http://www.w3.org/2000/svg">
<circle cx="84" cy="27" r="21" fill="#55ACEE"/>
<circle cx="163.5" cy="36.5" r="6.5" fill="#3B5999"/>
<circle cx="202.5" cy="123.5" r="6.5" fill="#3B5999"/>
<circle cx="13.5" cy="121.5" r="13.5" fill="#55ACEE"/>
<circle cx="169.5" cy="197.5" r="14.5" fill="#55ACEE"/>
<circle r="3" transform="matrix(-1 0 0 1 44 114)" fill="#3B5999"/>
<circle r="3" transform="matrix(-1 0 0 1 51 200)" fill="#3B5999"/>
<circle r="3" transform="matrix(-1 0 0 1 133 197)" fill="#3B5999"/>
<circle r="3" transform="matrix(-1 0 0 1 233 173)" fill="#3B5999"/>
<path d="M14 74C14 76.2091 12.2091 78 10 78C7.79086 78 6 76.2091 6 74C6 71.7909 7.79086 70 10 70C12.2091 70 14 71.7909 14 74ZM8.2 74C8.2 74.9941 9.00589 75.8 10 75.8C10.9941 75.8 11.8 74.9941 11.8 74C11.8 73.0059 10.9941 72.2 10 72.2C9.00589 72.2 8.2 73.0059 8.2 74Z" fill="#23AAE6"/>
<path d="M150 4C150 6.20914 148.209 8 146 8C143.791 8 142 6.20914 142 4C142 1.79086 143.791 0 146 0C148.209 0 150 1.79086 150 4ZM144.2 4C144.2 4.99411 145.006 5.8 146 5.8C146.994 5.8 147.8 4.99411 147.8 4C147.8 3.00589 146.994 2.2 146 2.2C145.006 2.2 144.2 3.00589 144.2 4Z" fill="#23AAE6"/>
<path d="M234 96C234 98.2091 232.209 100 230 100C227.791 100 226 98.2091 226 96C226 93.7909 227.791 92 230 92C232.209 92 234 93.7909 234 96ZM228.2 96C228.2 96.9941 229.006 97.8 230 97.8C230.994 97.8 231.8 96.9941 231.8 96C231.8 95.0059 230.994 94.2 230 94.2C229.006 94.2 228.2 95.0059 228.2 96Z" fill="#23AAE6"/>
<path d="M55 70C55 76.0751 50.0751 81 44 81C37.9249 81 33 76.0751 33 70C33 63.9249 37.9249 59 44 59C50.0751 59 55 63.9249 55 70ZM39.27 70C39.27 72.6123 41.3877 74.73 44 74.73C46.6123 74.73 48.73 72.6123 48.73 70C48.73 67.3877 46.6123 65.27 44 65.27C41.3877 65.27 39.27 67.3877 39.27 70Z" fill="#8CAAC8"/>
<path d="M211 59.5C211 68.0604 204.06 75 195.5 75C186.94 75 180 68.0604 180 59.5C180 50.9396 186.94 44 195.5 44C204.06 44 211 50.9396 211 59.5ZM188.835 59.5C188.835 63.181 191.819 66.165 195.5 66.165C199.181 66.165 202.165 63.181 202.165 59.5C202.165 55.819 199.181 52.835 195.5 52.835C191.819 52.835 188.835 55.819 188.835 59.5Z" fill="#8CAAC8"/>
<path d="M215 165C215 171.075 210.075 176 204 176C197.925 176 193 171.075 193 165C193 158.925 197.925 154 204 154C210.075 154 215 158.925 215 165ZM199.27 165C199.27 167.612 201.388 169.73 204 169.73C206.612 169.73 208.73 167.612 208.73 165C208.73 162.388 206.612 160.27 204 160.27C201.388 160.27 199.27 162.388 199.27 165Z" fill="#8CAAC8"/>
<path d="M105 198C105 201.866 101.866 205 98 205C94.134 205 91 201.866 91 198C91 194.134 94.134 191 98 191C101.866 191 105 194.134 105 198ZM94.99 198C94.99 199.662 96.3376 201.01 98 201.01C99.6624 201.01 101.01 199.662 101.01 198C101.01 196.338 99.6624 194.99 98 194.99C96.3376 194.99 94.99 196.338 94.99 198Z" fill="#9BD2F0"/>
<path d="M134 37C134 41.4183 130.418 45 126 45C121.582 45 118 41.4183 118 37C118 32.5817 121.582 29 126 29C130.418 29 134 32.5817 134 37ZM122.56 37C122.56 38.8999 124.1 40.44 126 40.44C127.9 40.44 129.44 38.8999 129.44 37C129.44 35.1001 127.9 33.56 126 33.56C124.1 33.56 122.56 35.1001 122.56 37Z" fill="#9BD2F0"/>
<path d="M57 162C57 170.284 50.2843 177 42 177C33.7157 177 27 170.284 27 162C27 153.716 33.7157 147 42 147C50.2843 147 57 153.716 57 162ZM35.55 162C35.55 165.562 38.4378 168.45 42 168.45C45.5622 168.45 48.45 165.562 48.45 162C48.45 158.438 45.5622 155.55 42 155.55C38.4378 155.55 35.55 158.438 35.55 162Z" fill="#8CAAC8"/>
<path d="M180 121.5C180 156.018 152.018 184 117.5 184C82.9822 184 55 156.018 55 121.5C55 86.9822 82.9822 59 117.5 59C152.018 59 180 86.9822 180 121.5ZM67.5 121.5C67.5 149.114 89.8858 171.5 117.5 171.5C145.114 171.5 167.5 149.114 167.5 121.5C167.5 93.8858 145.114 71.5 117.5 71.5C89.8858 71.5 67.5 93.8858 67.5 121.5Z" fill="#3B5999"/>
<path d="M138.396 105.597C140.833 109.031 145.995 111.177 140.69 116.041C130.797 125.341 133.521 124.196 125.635 118.187C122.911 120.19 120.761 121.621 122.624 126.056C125.349 132.781 122.338 140.078 116.172 143.798C110.294 147.374 102.695 146.516 97.6766 141.794C92.515 136.787 91.5114 129.204 95.2392 123.052C98.8237 117.043 105.993 114.324 113.018 116.327C114.165 116.614 115.312 117.186 116.889 117.758C122.338 112.178 127.929 106.598 133.378 101.019C135.098 99.3017 136.819 96.7264 139.543 98.7295C142.697 101.019 139.83 103.165 138.396 105.597ZM108.287 121.907C103.699 121.764 99.5405 125.77 99.3971 130.492C99.2538 135.499 103.125 139.648 108.143 139.648C112.875 139.648 116.889 135.928 117.176 131.207C117.319 126.343 113.161 122.05 108.287 121.907ZM133.378 110.318C132.087 110.748 130.94 111.606 130.654 113.037C130.51 114.038 131.371 114.754 132.231 114.754C133.808 114.611 134.668 113.466 134.955 112.035C135.242 111.177 134.381 110.605 133.378 110.318Z" fill="#415E9C"/>
</svg>
