<svg width="236" height="212" viewBox="0 0 236 212" fill="none" xmlns="http://www.w3.org/2000/svg">
<circle r="21" transform="matrix(-1 0 0 1 152 27)" fill="#FF9E9E"/>
<circle r="6.5" transform="matrix(-1 0 0 1 72.5 36.5)" fill="#FF6363"/>
<circle r="6.5" transform="matrix(-1 0 0 1 33.5 123.5)" fill="#FF6363"/>
<circle r="13.5" transform="matrix(-1 0 0 1 222.5 121.5)" fill="#FF9E9E"/>
<circle r="14.5" transform="matrix(-1 0 0 1 66.5 197.5)" fill="#FF9E9E"/>
<circle cx="192" cy="114" r="3" fill="#FF6363"/>
<circle cx="185" cy="200" r="3" fill="#FF6363"/>
<circle cx="103" cy="197" r="3" fill="#FF6363"/>
<circle cx="3" cy="173" r="3" fill="#FF6363"/>
<path d="M222 74C222 76.2091 223.791 78 226 78C228.209 78 230 76.2091 230 74C230 71.7909 228.209 70 226 70C223.791 70 222 71.7909 222 74ZM227.8 74C227.8 74.9941 226.994 75.8 226 75.8C225.006 75.8 224.2 74.9941 224.2 74C224.2 73.0059 225.006 72.2 226 72.2C226.994 72.2 227.8 73.0059 227.8 74Z" fill="#FF3636"/>
<path d="M86 4C86 6.20914 87.7909 8 90 8C92.2091 8 94 6.20914 94 4C94 1.79086 92.2091 0 90 0C87.7909 0 86 1.79086 86 4ZM91.8 4C91.8 4.99411 90.9941 5.8 90 5.8C89.0059 5.8 88.2 4.99411 88.2 4C88.2 3.00589 89.0059 2.2 90 2.2C90.9941 2.2 91.8 3.00589 91.8 4Z" fill="#FF3636"/>
<path d="M2 96C2 98.2091 3.79086 100 6 100C8.20914 100 10 98.2091 10 96C10 93.7909 8.20914 92 6 92C3.79086 92 2 93.7909 2 96ZM7.8 96C7.8 96.9941 6.99411 97.8 6 97.8C5.00589 97.8 4.2 96.9941 4.2 96C4.2 95.0059 5.00589 94.2 6 94.2C6.99411 94.2 7.8 95.0059 7.8 96Z" fill="#FF3636"/>
<path d="M181 70C181 76.0751 185.925 81 192 81C198.075 81 203 76.0751 203 70C203 63.9249 198.075 59 192 59C185.925 59 181 63.9249 181 70ZM196.73 70C196.73 72.6123 194.612 74.73 192 74.73C189.388 74.73 187.27 72.6123 187.27 70C187.27 67.3877 189.388 65.27 192 65.27C194.612 65.27 196.73 67.3877 196.73 70Z" fill="#C88C8C"/>
<path d="M25 59.5C25 68.0604 31.9396 75 40.5 75C49.0604 75 56 68.0604 56 59.5C56 50.9396 49.0604 44 40.5 44C31.9396 44 25 50.9396 25 59.5ZM47.165 59.5C47.165 63.181 44.181 66.165 40.5 66.165C36.819 66.165 33.835 63.181 33.835 59.5C33.835 55.819 36.819 52.835 40.5 52.835C44.181 52.835 47.165 55.819 47.165 59.5Z" fill="#C88C8C"/>
<path d="M21 165C21 171.075 25.9249 176 32 176C38.0751 176 43 171.075 43 165C43 158.925 38.0751 154 32 154C25.9249 154 21 158.925 21 165ZM36.73 165C36.73 167.612 34.6123 169.73 32 169.73C29.3877 169.73 27.27 167.612 27.27 165C27.27 162.388 29.3877 160.27 32 160.27C34.6123 160.27 36.73 162.388 36.73 165Z" fill="#C88C8C"/>
<path d="M131 198C131 201.866 134.134 205 138 205C141.866 205 145 201.866 145 198C145 194.134 141.866 191 138 191C134.134 191 131 194.134 131 198ZM141.01 198C141.01 199.662 139.662 201.01 138 201.01C136.338 201.01 134.99 199.662 134.99 198C134.99 196.338 136.338 194.99 138 194.99C139.662 194.99 141.01 196.338 141.01 198Z" fill="#F09B9B"/>
<path d="M102 37C102 41.4183 105.582 45 110 45C114.418 45 118 41.4183 118 37C118 32.5817 114.418 29 110 29C105.582 29 102 32.5817 102 37ZM113.44 37C113.44 38.8999 111.9 40.44 110 40.44C108.1 40.44 106.56 38.8999 106.56 37C106.56 35.1001 108.1 33.56 110 33.56C111.9 33.56 113.44 35.1001 113.44 37Z" fill="#F09B9B"/>
<path d="M179 162C179 170.284 185.716 177 194 177C202.284 177 209 170.284 209 162C209 153.716 202.284 147 194 147C185.716 147 179 153.716 179 162ZM200.45 162C200.45 165.562 197.562 168.45 194 168.45C190.438 168.45 187.55 165.562 187.55 162C187.55 158.438 190.438 155.55 194 155.55C197.562 155.55 200.45 158.438 200.45 162Z" fill="#C88C8C"/>
<path d="M56 121.5C56 156.018 83.9822 184 118.5 184C153.018 184 181 156.018 181 121.5C181 86.9822 153.018 59 118.5 59C83.9822 59 56 86.9822 56 121.5ZM168.5 121.5C168.5 149.114 146.114 171.5 118.5 171.5C90.8858 171.5 68.5 149.114 68.5 121.5C68.5 93.8858 90.8858 71.5 118.5 71.5C146.114 71.5 168.5 93.8858 168.5 121.5Z" fill="#FF6363"/>
<path d="M138.886 116.881C138.114 116.089 137.322 115.256 137.017 114.545C136.712 113.834 136.733 112.778 136.712 111.702C136.692 109.731 136.652 107.477 135.087 105.912C133.523 104.348 131.269 104.308 129.298 104.287C128.222 104.267 127.125 104.247 126.455 103.983C125.784 103.719 124.911 102.886 124.119 102.114C122.717 100.773 121.112 99.25 119 99.25C116.888 99.25 115.283 100.773 113.881 102.114C113.089 102.886 112.256 103.678 111.545 103.983C110.834 104.287 109.778 104.267 108.702 104.287C106.731 104.308 104.477 104.348 102.912 105.912C101.348 107.477 101.308 109.731 101.287 111.702C101.267 112.778 101.247 113.875 100.983 114.545C100.719 115.216 99.8859 116.089 99.1141 116.881C97.7734 118.283 96.25 119.888 96.25 122C96.25 124.112 97.7734 125.717 99.1141 127.119C99.8859 127.911 100.678 128.744 100.983 129.455C101.287 130.166 101.267 131.222 101.287 132.298C101.308 134.269 101.348 136.523 102.912 138.087C104.477 139.652 106.731 139.692 108.702 139.712C109.778 139.733 110.875 139.753 111.545 140.017C112.216 140.281 113.089 141.114 113.881 141.886C115.283 143.227 116.888 144.75 119 144.75C121.112 144.75 122.717 143.227 124.119 141.886C124.911 141.114 125.744 140.322 126.455 140.017C127.166 139.712 128.222 139.733 129.298 139.712C131.269 139.692 133.523 139.652 135.087 138.087C136.652 136.523 136.692 134.269 136.712 132.298C136.733 131.222 136.753 130.125 137.017 129.455C137.281 128.784 138.114 127.911 138.886 127.119C140.227 125.717 141.75 124.112 141.75 122C141.75 119.888 140.227 118.283 138.886 116.881ZM129.055 118.303L117.152 129.678C116.844 129.968 116.437 130.128 116.014 130.125C115.598 130.127 115.197 129.966 114.897 129.678L108.945 123.991C108.78 123.847 108.646 123.671 108.551 123.473C108.455 123.276 108.401 123.062 108.39 122.843C108.38 122.624 108.414 122.405 108.49 122.2C108.567 121.995 108.684 121.807 108.834 121.648C108.985 121.489 109.167 121.362 109.368 121.275C109.569 121.188 109.785 121.142 110.004 121.141C110.223 121.14 110.44 121.183 110.642 121.268C110.844 121.352 111.027 121.477 111.18 121.634L116.014 126.245L126.82 115.947C127.136 115.671 127.547 115.528 127.965 115.548C128.384 115.568 128.779 115.749 129.068 116.053C129.356 116.357 129.516 116.761 129.514 117.181C129.511 117.6 129.347 118.002 129.055 118.303Z" fill="#FF6363"/>
</svg>
