<svg width="377" height="242" viewBox="0 0 377 242" fill="none" xmlns="http://www.w3.org/2000/svg">
<rect width="377" height="242" fill="url(#paint0_linear_331_8088)"/>
<circle cx="254.5" cy="58.5" r="17.5" fill="#F7796C"/>
<path d="M359 166C359 204.108 328.108 235 290 235C251.892 235 221 204.108 221 166C221 127.892 251.892 97 290 97C328.108 97 359 127.892 359 166ZM241.7 166C241.7 192.675 263.325 214.3 290 214.3C316.675 214.3 338.3 192.675 338.3 166C338.3 139.325 316.675 117.7 290 117.7C263.325 117.7 241.7 139.325 241.7 166Z" fill="#EA4D4B"/>
<path d="M199 132C199 138.627 193.627 144 187 144C180.373 144 175 138.627 175 132C175 125.373 180.373 120 187 120C193.627 120 199 125.373 199 132ZM182.2 132C182.2 134.651 184.349 136.8 187 136.8C189.651 136.8 191.8 134.651 191.8 132C191.8 129.349 189.651 127.2 187 127.2C184.349 127.2 182.2 129.349 182.2 132Z" fill="#EC5149"/>
<circle cx="307" cy="138" r="6" fill="#F0908D"/>
<defs>
<linearGradient id="paint0_linear_331_8088" x1="338.823" y1="134.785" x2="38.0963" y2="100.355" gradientUnits="userSpaceOnUse">
<stop stop-color="#EC6160"/>
<stop offset="1" stop-color="#FE7D57"/>
</linearGradient>
</defs>
</svg>
